<?xml version="1.0" encoding="utf-8"?>
<!-- Generator: Adobe Illustrator 16.0.0, SVG Export Plug-In . SVG Version: 6.00 Build 0)  -->
<!DOCTYPE svg PUBLIC "-//W3C//DTD SVG 1.1//EN" "http://www.w3.org/Graphics/SVG/1.1/DTD/svg11.dtd">
<svg version="1.1" xmlns="http://www.w3.org/2000/svg" xmlns:xlink="http://www.w3.org/1999/xlink" x="0px" y="0px"
	 width="3741.504px" height="1263px" viewBox="0 0 3741.504 1263" enable-background="new 0 0 3741.504 1263" xml:space="preserve">
<g id="_x2E_">
	<circle fill="#FFFFFF" cx="3638" cy="1163" r="100"/>
</g>
<g id="l">
	<rect x="2413" y="3" fill="#FFFFFF" width="200" height="1260"/>
</g>
<g id="b_1_">
	<rect x="2412" y="2" fill="#FFFFFF" width="200" height="1260"/>
	<rect x="3218" y="3" fill="#FFFFFF" width="200" height="1260"/>
	<circle fill="#FFFFFF" cx="2793" cy="888" r="375"/>
</g>
<g id="b_2_">
	<rect x="1607" y="2" fill="#FFFFFF" width="200" height="1260"/>
	<rect x="1608" y="3" fill="#FFFFFF" width="200" height="1260"/>
	<circle fill="#FFFFFF" cx="1988" cy="888" r="375"/>
</g>
<g id="u">
	<circle opacity="0.2" fill="#FFFFFF" cx="1182" cy="886" r="375"/>
	<path fill="#FFFFFF" d="M1355.382,553.409c60.26,49.897,98.653,125.276,98.653,209.626c0,150.239-121.794,272.034-272.035,272.034
		S909.965,913.274,909.965,763.035c0-84.35,38.393-159.729,98.653-209.626C888.792,616.003,807,741.447,807,886
		c0,207.105,167.893,375,375,375s375-167.895,375-375C1557,741.447,1475.208,616.003,1355.382,553.409z"/>
</g>
<g id="b">
	<rect x="1" y="1" fill="#FFFFFF" width="200" height="1260"/>
	<circle fill="#FFFFFF" cx="381" cy="886" r="375"/>
	<rect class="logobtn" opacity="0" x="0" y="0" width="3741.504" height="1263"/>
</g>
</svg>
